<svg xmlns="http://www.w3.org/2000/svg" viewBox="0 0 26.0045 149.0017"><defs><style>.cls-1{fill:#fff;}.cls-2{fill:#020000;}.cls-3{fill:none;stroke:#000;stroke-miterlimit:10;stroke-width:0.5px;}</style></defs><title>kompetencer2</title><g id="Lag_1" data-name="Lag 1"><path d="M15.75,64.2822a12.7392,12.7392,0,0,1,0,25.4355Z" transform="translate(-1.9978 -2.9983)"/><path d="M16,64.55A12.489,12.489,0,0,1,16,89.45V64.55m-.5-.53V89.98a12.9892,12.9892,0,0,0,0-25.96Z" transform="translate(-1.9978 -2.9983)"/><path d="M15,64.5v25a12.5,12.5,0,0,1,0-25m0-.5a13,13,0,0,0,0,26,4.0938,4.0938,0,0,0,.5-.02V64.02A4.1058,4.1058,0,0,0,15,64Z" transform="translate(-1.9978 -2.9983)"/><path class="cls-1" d="M15,58.75A12.75,12.75,0,1,1,27.75,46,12.7646,12.7646,0,0,1,15,58.75Z" transform="translate(-1.9978 -2.9983)"/><path d="M15,33.5A12.5,12.5,0,1,1,2.5,46,12.5142,12.5142,0,0,1,15,33.5m0-.5A13,13,0,1,0,28,46,13,13,0,0,0,15,33Z" transform="translate(-1.9978 -2.9983)"/><path class="cls-1" d="M14.791,28.27A12.59,12.59,0,0,1,2.25,15.9951,12.5992,12.5992,0,0,1,14.79,3.248l.2061.002a12.7181,12.7181,0,0,1,9.1523,3.8491,12.3062,12.3062,0,0,1,3.6016,8.896A12.7731,12.7731,0,0,1,15.4907,28.25C15.2534,28.2637,15.0215,28.27,14.791,28.27Z" transform="translate(-1.9978 -2.9983)"/><path d="M14.79,3.4983l.2273.0017A12.4561,12.4561,0,0,1,23.97,7.2745,12.0581,12.0581,0,0,1,27.5,15.99a12.5233,12.5233,0,0,1-12.0279,12.01q-.3423.019-.6814.019A12.3391,12.3391,0,0,1,2.5,15.9906,12.3495,12.3495,0,0,1,14.79,3.4983m0-.5A12.85,12.85,0,0,0,2,16,12.8528,12.8528,0,0,0,14.7908,28.52q.3527,0,.7092-.02A12.95,12.95,0,0,0,28,16,12.9673,12.9673,0,0,0,15.0166,3H15c-.07-.0012-.14-.0017-.21-.0017Z" transform="translate(-1.9978 -2.9983)"/><path class="cls-2" d="M15,120.75A12.75,12.75,0,1,1,27.75,108,12.7646,12.7646,0,0,1,15,120.75Z" transform="translate(-1.9978 -2.9983)"/><path d="M15,95.5A12.5,12.5,0,1,1,2.5,108,12.5142,12.5142,0,0,1,15,95.5m0-.5a13,13,0,1,0,13,13A13,13,0,0,0,15,95Z" transform="translate(-1.9978 -2.9983)"/><path d="M15,151.75A12.75,12.75,0,1,1,27.75,139,12.7646,12.7646,0,0,1,15,151.75Z" transform="translate(-1.9978 -2.9983)"/><path d="M15,126.5A12.5,12.5,0,1,1,2.5,139,12.5142,12.5142,0,0,1,15,126.5m0-.5a13,13,0,1,0,13,13,13,13,0,0,0-13-13Z" transform="translate(-1.9978 -2.9983)"/><path class="cls-3" d="M14.5-2.5" transform="translate(-1.9978 -2.9983)"/></g><g id="Lag_2" data-name="Lag 2"><path class="cls-3" d="M15.5,27.98" transform="translate(-1.9978 -2.9983)"/><path class="cls-3" d="M15.5,30.5" transform="translate(-1.9978 -2.9983)"/><path class="cls-3" d="M-4.5,64.02" transform="translate(-1.9978 -2.9983)"/></g></svg>