<svg id="Lag_1" data-name="Lag 1" xmlns="http://www.w3.org/2000/svg" viewBox="0 0 26 150"><defs><style>.cls-1{fill:#fff;}.cls-2{fill:#020000;}</style></defs><title>kompetencer1</title><path class="cls-1" d="M15,27.75A12.75,12.75,0,1,1,27.75,15,12.7646,12.7646,0,0,1,15,27.75Z" transform="translate(-2 -2)"/><path d="M15,2.5A12.5,12.5,0,1,1,2.5,15,12.5142,12.5142,0,0,1,15,2.5M15,2A13,13,0,1,0,28,15,13,13,0,0,0,15,2Z" transform="translate(-2 -2)"/><path d="M15,58.75A12.75,12.75,0,1,1,27.75,46,12.7646,12.7646,0,0,1,15,58.75Z" transform="translate(-2 -2)"/><path d="M15,33.5A12.5,12.5,0,1,1,2.5,46,12.5142,12.5142,0,0,1,15,33.5m0-.5A13,13,0,1,0,28,46,13,13,0,0,0,15,33Z" transform="translate(-2 -2)"/><path d="M15,89.75A12.75,12.75,0,1,1,27.75,77,12.7646,12.7646,0,0,1,15,89.75Z" transform="translate(-2 -2)"/><path d="M15,64.5A12.5,12.5,0,1,1,2.5,77,12.5142,12.5142,0,0,1,15,64.5m0-.5A13,13,0,1,0,28,77,13,13,0,0,0,15,64Z" transform="translate(-2 -2)"/><path class="cls-2" d="M15,120.75A12.75,12.75,0,1,1,27.75,108,12.7646,12.7646,0,0,1,15,120.75Z" transform="translate(-2 -2)"/><path d="M15,95.5A12.5,12.5,0,1,1,2.5,108,12.5142,12.5142,0,0,1,15,95.5m0-.5a13,13,0,1,0,13,13A13,13,0,0,0,15,95Z" transform="translate(-2 -2)"/><path d="M15,151.75A12.75,12.75,0,1,1,27.75,139,12.7646,12.7646,0,0,1,15,151.75Z" transform="translate(-2 -2)"/><path d="M15,126.5A12.5,12.5,0,1,1,2.5,139,12.5142,12.5142,0,0,1,15,126.5m0-.5a13,13,0,1,0,13,13,13,13,0,0,0-13-13Z" transform="translate(-2 -2)"/></svg>