<?xml version="1.0" standalone="no"?>
<!DOCTYPE svg PUBLIC "-//W3C//DTD SVG 20010904//EN"
 "http://www.w3.org/TR/2001/REC-SVG-20010904/DTD/svg10.dtd">
<svg version="1.0" xmlns="http://www.w3.org/2000/svg"
 width="260.000000pt" height="260.000000pt" viewBox="0 0 260.000000 260.000000"
 preserveAspectRatio="xMidYMid meet">
<metadata>
Created by potrace 1.11, written by Peter Selinger 2001-2013
</metadata>
<g transform="translate(0.000000,260.000000) scale(0.100000,-0.100000)"
fill="#000000" stroke="none">
<path d="M1007 2260 c-223 -38 -348 -204 -293 -391 38 -132 120 -180 449 -264
l68 -18 -30 -29 c-67 -66 -101 -211 -71 -303 7 -20 9 -39 6 -42 -11 -11 -138
17 -185 42 -69 34 -118 93 -138 166 l-17 61 -35 -6 c-20 -3 -51 -6 -68 -6 -30
0 -33 -3 -33 -31 0 -93 71 -221 153 -276 89 -60 146 -75 317 -82 129 -6 162
-10 195 -28 22 -11 108 -39 190 -63 83 -23 170 -51 195 -61 85 -38 120 -87
120 -172 0 -115 -95 -195 -244 -205 -186 -12 -328 75 -360 220 -14 59 -24 65
-103 53 -41 -6 -43 -8 -43 -39 0 -49 28 -135 60 -186 82 -129 210 -190 398
-190 114 0 198 20 266 64 109 70 157 154 164 287 4 78 2 92 -23 146 -56 126
-145 177 -442 253 l-42 11 40 52 c50 66 73 140 67 221 -3 33 -8 68 -12 77 -6
15 -1 15 46 7 65 -12 99 -29 137 -70 29 -32 61 -103 61 -138 0 -14 10 -16 63
-12 34 2 66 8 71 12 4 4 3 31 -3 59 -25 118 -91 203 -194 252 -70 32 -191 54
-253 45 -34 -4 -56 1 -106 23 -35 16 -130 46 -211 65 -253 62 -304 91 -314
179 -13 113 89 187 261 187 140 0 240 -63 265 -167 l12 -49 62 4 c89 5 86 3
75 64 -12 67 -52 140 -97 180 -95 84 -269 124 -424 98z m399 -785 c36 -88 2
-174 -93 -229 -20 -11 -53 53 -53 104 0 56 26 108 70 138 45 30 59 28 76 -13z"/>
</g>
</svg>
